<?xml version="1.0" encoding="utf-8"?>
<!-- Generator: Adobe Illustrator 21.0.0, SVG Export Plug-In . SVG Version: 6.00 Build 0)  -->
<svg version="1.1" id="Layer_1" xmlns="http://www.w3.org/2000/svg" xmlns:xlink="http://www.w3.org/1999/xlink" x="0px" y="0px"
	 viewBox="0 0 32 32" style="enable-background:new 0 0 32 32;" xml:space="preserve">
<style type="text/css">
	.st0{fill:#FFFFFF;}
	.st1{font-family:'MyriadPro-Regular';}
	.st2{font-size:8.8901px;}
</style>
<path class="st0" d="M28.5,6.8c0.3,0.3,0.6,0.8,0.9,1.4s0.4,1.1,0.4,1.6v20.6c0,0.5-0.2,0.9-0.5,1.2C28.9,31.8,28.5,32,28,32H4
	c-0.5,0-0.9-0.2-1.2-0.5s-0.5-0.7-0.5-1.2V1.7c0-0.5,0.2-0.9,0.5-1.2S3.5,0,4,0h16c0.5,0,1,0.1,1.6,0.4s1,0.5,1.4,0.9L28.5,6.8z
	 M20.6,2.4v6.7h6.7c-0.1-0.3-0.2-0.6-0.4-0.7l-5.6-5.6C21.2,2.7,20.9,2.5,20.6,2.4z M27.4,29.7V11.4H20c-0.5,0-0.9-0.2-1.2-0.5
	c-0.3-0.3-0.5-0.7-0.5-1.2V2.3H4.6v27.4H27.4z"/>
<text transform="matrix(1 0 0 1 7.7501 24.0771)" class="st0 st1 st2">dcm</text>
</svg>
